<svg width="274" height="147" viewBox="0 0 274 147" fill="none" xmlns="http://www.w3.org/2000/svg">
<path d="M106.4 107.753C99.3724 115.296 90.4111 120.846 80.6492 123.7C70.8873 126.555 60.7633 126.587 51.5574 123.791C42.3514 120.996 34.477 115.498 28.93 107.995C23.383 100.491 20.4124 91.3181 20.394 81.6356C20.3756 71.9531 23.3101 62.196 28.8265 53.5982C34.3429 45.0004 42.1933 37.948 51.3852 33.3329C60.577 28.7177 70.6974 26.7472 80.4665 27.6703C90.2355 28.5935 99.2146 32.3689 106.268 38.5192L101.601 43.5288C95.4738 38.1864 87.6742 34.9069 79.1884 34.105C70.7025 33.3031 61.9115 35.0149 53.9271 39.0238C45.9427 43.0327 39.1234 49.1586 34.3317 56.6271C29.5399 64.0955 26.9908 72.5709 27.0068 80.9816C27.0229 89.3922 29.6032 97.3603 34.4216 103.878C39.24 110.396 46.08 115.171 54.0767 117.6C62.0734 120.028 70.8675 120.001 79.3471 117.521C87.8267 115.041 95.6109 110.22 101.715 103.668L106.4 107.753Z" fill="#83D8A6"/>
<line x1="57.6184" y1="0.770316" x2="47.324" y2="67.9866" stroke="#83D8A6" stroke-width="5"/>
<line x1="82.9609" y1="70.8595" x2="44.9106" y2="69.4984" stroke="#83D8A6" stroke-width="5"/>
<path d="M92.7695 51.3984L90.25 63.3125C89.8464 65.1484 89.6445 66.4049 89.6445 67.082C89.6445 68.8138 90.4714 69.6797 92.125 69.6797C93.0625 69.6797 93.9935 69.3086 94.918 68.5664C95.8424 67.8242 96.6628 66.7695 97.3789 65.4023C98.0951 64.0221 98.6484 62.4076 99.0391 60.5586L100.973 51.3984H105.523L100.973 73H97.3594L97.7695 68.9961H97.6133C96.5456 70.5065 95.4323 71.6198 94.2734 72.3359C93.1146 73.0391 91.8646 73.3906 90.5234 73.3906C88.7786 73.3906 87.431 72.8958 86.4805 71.9062C85.5299 70.9167 85.0547 69.4974 85.0547 67.6484C85.0547 66.8281 85.1328 66.0208 85.2891 65.2266C85.4453 64.4193 85.6016 63.612 85.7578 62.8047L88.1602 51.3984H92.7695ZM116.363 73.3906C113.811 73.3906 111.832 72.7005 110.426 71.3203C109.02 69.9401 108.316 67.9674 108.316 65.4023C108.316 62.707 108.792 60.2591 109.742 58.0586C110.706 55.8451 112.053 54.1198 113.785 52.8828C115.517 51.6328 117.483 51.0078 119.684 51.0078C121.819 51.0078 123.753 51.4049 125.484 52.1992L124.117 55.793C122.529 55.1029 121.09 54.7578 119.801 54.7578C117.848 54.7578 116.22 55.7604 114.918 57.7656C113.616 59.7578 112.965 62.2253 112.965 65.168C112.965 66.6133 113.329 67.7266 114.059 68.5078C114.788 69.2891 115.797 69.6797 117.086 69.6797C118.049 69.6797 118.948 69.5365 119.781 69.25C120.628 68.9635 121.474 68.612 122.32 68.1953V72.0039C120.497 72.9284 118.512 73.3906 116.363 73.3906Z" fill="#83D8A6"/>
<path d="M116.809 102.289C116.809 100.896 116.49 99.8086 115.852 99.0273C115.214 98.2331 114.302 97.8359 113.117 97.8359C111.906 97.8359 110.819 98.3047 109.855 99.2422C108.905 100.167 108.163 101.43 107.629 103.031C107.108 104.62 106.848 106.319 106.848 108.129C106.848 109.574 107.167 110.681 107.805 111.449C108.456 112.217 109.413 112.602 110.676 112.602C111.848 112.602 112.902 112.159 113.84 111.273C114.777 110.388 115.507 109.151 116.027 107.562C116.548 105.961 116.809 104.203 116.809 102.289ZM121.438 102.484C121.438 105.115 120.962 107.51 120.012 109.672C119.061 111.82 117.753 113.474 116.086 114.633C114.432 115.779 112.525 116.352 110.363 116.352C107.863 116.352 105.878 115.609 104.406 114.125C102.935 112.628 102.199 110.596 102.199 108.031C102.199 105.44 102.661 103.064 103.586 100.902C104.523 98.7409 105.832 97.0612 107.512 95.8633C109.191 94.6523 111.132 94.0469 113.332 94.0469C115.871 94.0469 117.857 94.8021 119.289 96.3125C120.721 97.8229 121.438 99.8802 121.438 102.484ZM137.004 116L139.777 102.875C140.012 101.703 140.129 100.85 140.129 100.316C140.129 98.6107 139.289 97.7578 137.609 97.7578C136.672 97.7578 135.747 98.1289 134.836 98.8711C133.924 99.6133 133.104 100.688 132.375 102.094C131.646 103.487 131.099 105.069 130.734 106.84L128.82 116H124.211L128.82 94.3984H132.414L132.004 98.4023H132.18C133.26 96.8659 134.374 95.7526 135.52 95.0625C136.665 94.3594 137.909 94.0078 139.25 94.0078C140.995 94.0078 142.342 94.5026 143.293 95.4922C144.257 96.4818 144.738 97.888 144.738 99.7109C144.738 100.609 144.589 101.788 144.289 103.246L141.613 116H137.004ZM162.16 109.359C162.16 111.612 161.392 113.35 159.855 114.574C158.319 115.785 156.184 116.391 153.449 116.391C150.975 116.391 148.879 115.954 147.16 115.082V111.117C149.152 112.289 151.184 112.875 153.254 112.875C154.517 112.875 155.539 112.615 156.32 112.094C157.102 111.573 157.492 110.863 157.492 109.965C157.492 109.301 157.264 108.734 156.809 108.266C156.366 107.784 155.448 107.146 154.055 106.352C152.427 105.479 151.275 104.594 150.598 103.695C149.934 102.784 149.602 101.71 149.602 100.473C149.602 98.4544 150.298 96.8724 151.691 95.7266C153.085 94.5807 154.966 94.0078 157.336 94.0078C159.888 94.0078 162.141 94.5547 164.094 95.6484L162.609 99.0859C160.786 98.0964 159.055 97.6016 157.414 97.6016C156.464 97.6016 155.689 97.8164 155.09 98.2461C154.504 98.6758 154.211 99.2747 154.211 100.043C154.211 100.629 154.426 101.15 154.855 101.605C155.285 102.061 156.164 102.647 157.492 103.363C158.859 104.132 159.829 104.789 160.402 105.336C160.975 105.883 161.411 106.482 161.711 107.133C162.01 107.771 162.16 108.513 162.16 109.359ZM173.781 112.68C174.667 112.68 175.65 112.478 176.73 112.074V115.551C176.275 115.772 175.656 115.967 174.875 116.137C174.094 116.306 173.312 116.391 172.531 116.391C168.964 116.391 167.18 114.783 167.18 111.566C167.18 110.824 167.284 109.971 167.492 109.008L169.855 97.875H166.691L167.102 95.7266L170.812 94.125L173.332 89.5938H176.184L175.168 94.3984H180.617L179.855 97.875H174.445L172.062 109.047C171.893 109.763 171.809 110.362 171.809 110.844C171.809 111.404 171.971 111.853 172.297 112.191C172.622 112.517 173.117 112.68 173.781 112.68ZM187.375 116.391C185.539 116.391 184.087 115.733 183.02 114.418C181.952 113.09 181.418 111.228 181.418 108.832C181.418 106.202 181.867 103.741 182.766 101.449C183.677 99.1576 184.927 97.3477 186.516 96.0195C188.104 94.6784 189.849 94.0078 191.75 94.0078C193.013 94.0078 194.1 94.3073 195.012 94.9062C195.923 95.4922 196.633 96.3516 197.141 97.4844H197.336L198.547 94.3984H202.062L197.453 116H193.898L194.309 112.562H194.191C192.134 115.115 189.862 116.391 187.375 116.391ZM189.055 112.68C190.122 112.68 191.171 112.178 192.199 111.176C193.228 110.16 194.074 108.806 194.738 107.113C195.402 105.421 195.734 103.572 195.734 101.566C195.734 100.421 195.428 99.5026 194.816 98.8125C194.204 98.1094 193.404 97.7578 192.414 97.7578C191.307 97.7578 190.266 98.2591 189.289 99.2617C188.312 100.264 187.531 101.632 186.945 103.363C186.359 105.082 186.066 106.866 186.066 108.715C186.066 110.043 186.327 111.039 186.848 111.703C187.382 112.354 188.117 112.68 189.055 112.68ZM216.457 116L219.23 102.875C219.465 101.703 219.582 100.85 219.582 100.316C219.582 98.6107 218.742 97.7578 217.062 97.7578C216.125 97.7578 215.201 98.1289 214.289 98.8711C213.378 99.6133 212.557 100.688 211.828 102.094C211.099 103.487 210.552 105.069 210.188 106.84L208.273 116H203.664L208.273 94.3984H211.867L211.457 98.4023H211.633C212.714 96.8659 213.827 95.7526 214.973 95.0625C216.118 94.3594 217.362 94.0078 218.703 94.0078C220.448 94.0078 221.796 94.5026 222.746 95.4922C223.71 96.4818 224.191 97.888 224.191 99.7109C224.191 100.609 224.042 101.788 223.742 103.246L221.066 116H216.457ZM235.227 112.68C236.112 112.68 237.095 112.478 238.176 112.074V115.551C237.72 115.772 237.102 115.967 236.32 116.137C235.539 116.306 234.758 116.391 233.977 116.391C230.409 116.391 228.625 114.783 228.625 111.566C228.625 110.824 228.729 109.971 228.938 109.008L231.301 97.875H228.137L228.547 95.7266L232.258 94.125L234.777 89.5938H237.629L236.613 94.3984H242.062L241.301 97.875H235.891L233.508 109.047C233.339 109.763 233.254 110.362 233.254 110.844C233.254 111.404 233.417 111.853 233.742 112.191C234.068 112.517 234.562 112.68 235.227 112.68ZM247.473 89.0859C247.473 88.2005 247.727 87.4844 248.234 86.9375C248.742 86.3906 249.458 86.1172 250.383 86.1172C251.073 86.1172 251.633 86.293 252.062 86.6445C252.492 86.9831 252.707 87.5039 252.707 88.207C252.707 89.1315 252.447 89.8607 251.926 90.3945C251.405 90.9284 250.721 91.1953 249.875 91.1953C249.185 91.1953 248.612 91.026 248.156 90.6875C247.701 90.349 247.473 89.8151 247.473 89.0859ZM246.555 116H241.945L246.555 94.3984H251.145L246.555 116ZM265.754 116L268.527 102.875C268.762 101.703 268.879 100.85 268.879 100.316C268.879 98.6107 268.039 97.7578 266.359 97.7578C265.422 97.7578 264.497 98.1289 263.586 98.8711C262.674 99.6133 261.854 100.688 261.125 102.094C260.396 103.487 259.849 105.069 259.484 106.84L257.57 116H252.961L257.57 94.3984H261.164L260.754 98.4023H260.93C262.01 96.8659 263.124 95.7526 264.27 95.0625C265.415 94.3594 266.659 94.0078 268 94.0078C269.745 94.0078 271.092 94.5026 272.043 95.4922C273.007 96.4818 273.488 97.888 273.488 99.7109C273.488 100.609 273.339 101.788 273.039 103.246L270.363 116H265.754Z" fill="#83D8A6"/>
<line x1="104.006" y1="121" x2="270.006" y2="122" stroke="#83D8A6" stroke-width="2"/>
</svg>
